<?xml version="1.0" standalone="no"?>
<!DOCTYPE svg PUBLIC "-//W3C//DTD SVG 20010904//EN"
 "http://www.w3.org/TR/2001/REC-SVG-20010904/DTD/svg10.dtd">
<svg version="1.0" xmlns="http://www.w3.org/2000/svg"
 width="700.000000pt" height="700.000000pt" viewBox="0 0 700.000000 700.000000"
 preserveAspectRatio="xMidYMid meet">
<metadata>
Created by potrace 1.11, written by Peter Selinger 2001-2013
</metadata>
<g transform="translate(0.000000,700.000000) scale(0.100000,-0.100000)"
fill="#000000" stroke="none">
<path d="M2029 5456 c-2 -2 -53 -7 -114 -10 -60 -4 -123 -9 -140 -11 -29 -4
-173 -22 -245 -31 -48 -6 -135 -21 -255 -45 -129 -25 -122 -23 -250 -58 -352
-95 -595 -217 -691 -347 l-36 -49 43 44 c59 60 126 101 235 145 86 34 317 96
409 110 22 3 58 9 80 12 22 3 42 7 45 9 3 2 35 6 70 10 36 3 79 8 95 10 118
14 267 20 505 20 239 0 514 -10 530 -20 3 -1 40 -6 82 -9 42 -4 87 -9 100 -11
12 -3 40 -7 63 -10 416 -59 838 -166 1227 -313 59 -22 122 -47 140 -55 18 -9
71 -32 118 -52 540 -236 1138 -652 1509 -1049 98 -105 140 -152 194 -221 26
-33 52 -66 57 -72 43 -53 162 -251 215 -358 123 -252 178 -473 179 -725 1
-188 -6 -269 -39 -443 -29 -156 -24 -222 25 -330 46 -103 187 -207 307 -226
180 -28 356 64 429 223 55 120 66 193 68 436 1 208 -6 381 -19 455 -53 299
-120 504 -250 758 -243 478 -674 927 -1250 1302 -66 43 -131 86 -145 95 -166
111 -559 309 -819 412 -215 86 -597 208 -731 234 -14 3 -61 14 -105 26 -44 11
-91 22 -105 24 -14 3 -59 11 -100 19 -100 19 -264 45 -314 51 -23 2 -57 7 -76
10 -19 3 -55 7 -80 9 -53 5 -154 15 -225 22 -59 5 -731 14 -736 9z"/>
<path d="M1667 4744 c-1 -1 -51 -5 -112 -8 -151 -10 -194 -14 -315 -31 -58 -9
-118 -17 -135 -19 -116 -16 -391 -87 -526 -136 -197 -72 -358 -173 -400 -252
-6 -11 7 -2 29 20 84 84 223 139 487 192 22 5 65 11 95 15 30 3 62 8 70 10 97
26 694 26 885 0 17 -2 56 -6 89 -10 32 -3 68 -8 80 -10 11 -3 37 -7 57 -9 19
-2 44 -6 55 -9 10 -3 39 -8 64 -11 61 -8 86 -13 188 -37 48 -12 94 -22 102
-24 38 -8 102 -25 185 -50 495 -145 965 -380 1325 -662 55 -43 193 -156 209
-171 310 -292 447 -463 567 -702 96 -192 148 -391 148 -560 0 -67 -12 -226
-19 -260 -42 -206 -47 -255 -28 -335 51 -220 268 -361 493 -320 99 17 213 102
263 193 33 61 65 177 72 267 10 130 5 380 -10 475 -2 14 -6 45 -10 70 -8 54
-47 214 -70 289 -47 152 -156 373 -263 531 -59 86 -89 126 -162 215 -36 44
-266 273 -325 324 -277 238 -737 517 -1095 664 -305 125 -603 212 -965 281
-73 14 -370 53 -405 54 -8 0 -55 3 -105 7 -79 6 -512 14 -518 9z"/>
<path d="M1178 4035 c-2 -1 -48 -5 -103 -9 -107 -7 -116 -8 -275 -32 -353 -54
-673 -177 -756 -291 -38 -53 -38 -58 2 -20 63 62 133 91 304 126 146 30 225
36 480 35 220 -1 361 -13 570 -49 77 -14 322 -76 416 -106 450 -143 859 -390
1174 -708 95 -95 260 -296 260 -315 0 -3 13 -27 28 -53 53 -91 105 -240 120
-343 15 -108 8 -202 -28 -370 -24 -115 -25 -169 -4 -241 38 -132 131 -232 264
-284 51 -20 77 -24 153 -22 80 2 101 6 157 33 74 35 146 104 185 177 44 84 58
159 61 332 6 353 -70 633 -249 920 -290 465 -899 881 -1578 1079 -116 34 -363
90 -441 100 -18 2 -67 9 -108 15 -125 17 -226 23 -432 26 -109 1 -199 1 -200
0z"/>
</g>
</svg>
